<svg width="38" height="38" viewBox="0 0 38 38" fill="none" xmlns="http://www.w3.org/2000/svg">
<circle cx="19" cy="19" r="18.5" fill="url(#paint0_linear_361_7006)" stroke="#FFE9E9"/>
<path fill-rule="evenodd" clip-rule="evenodd" d="M16.3379 18.373C16.2258 18.3467 16.1577 18.2324 16.1841 18.1203C16.2104 18.0083 16.3247 17.9402 16.4368 17.9665C16.8015 18.0566 17.1663 18.1028 17.5288 18.1028C17.8914 18.1028 18.2539 18.0588 18.6187 17.9665C18.7307 17.938 18.845 18.0061 18.8713 18.1181C18.8999 18.2302 18.8318 18.3445 18.7197 18.3708C18.3242 18.4719 17.9265 18.5202 17.5288 18.518C17.1311 18.518 16.7334 18.4697 16.3379 18.373ZM24.4788 25.446C24.6765 25.802 24.9028 26.1426 25.1973 26.4546C25.4917 26.7666 25.8608 27.0522 26.3376 27.2961C26.3728 27.3137 26.4058 27.3137 26.4365 27.3005C26.4827 27.2829 26.5288 27.2456 26.5728 27.1994C26.6079 27.1643 26.6519 27.1072 26.698 27.0456C26.8804 26.8039 27.1067 26.5051 27.4275 26.6545C27.4341 26.6589 27.4407 26.6611 27.4473 26.6655L28.5151 27.2785C28.5195 27.2807 28.5217 27.2829 28.5261 27.2851C28.6667 27.3818 28.7239 27.5312 28.7261 27.7004C28.7261 27.8718 28.6624 28.0652 28.5701 28.23C28.447 28.4453 28.2668 28.5881 28.0559 28.6826C27.8582 28.7749 27.6362 28.8232 27.4231 28.854C27.0891 28.9023 26.7771 28.8716 26.4563 28.7727C26.1443 28.676 25.8279 28.5156 25.4829 28.3025L25.4587 28.2871C25.3005 28.1882 25.1292 28.0827 24.9622 27.9575C24.3491 27.4961 23.7251 26.8259 23.3186 26.092C22.978 25.4746 22.7913 24.8088 22.8923 24.1738C22.9495 23.8266 23.0989 23.5102 23.3582 23.2993C23.5845 23.1169 23.8899 23.0158 24.2876 23.051C24.3337 23.0554 24.3733 23.0818 24.3953 23.1191L25.0786 24.2771C25.1797 24.4067 25.1907 24.5364 25.1357 24.6638C25.0896 24.7693 24.9995 24.8659 24.8743 24.9582C24.8369 24.989 24.793 25.0219 24.7468 25.0549C24.593 25.1648 24.4194 25.2944 24.4788 25.446ZM20.9192 21.748C20.5676 21.3899 20.3062 21.0075 20.0447 20.6274C20.0029 20.5659 19.959 20.5022 19.915 20.4385C19.2866 20.9372 18.5242 21.2558 17.531 21.2514C16.4587 21.2492 15.6523 20.8384 14.991 20.2341C14.9514 20.1989 14.9119 20.1616 14.8745 20.1242C14.78 20.3879 14.6592 20.7021 14.5295 20.9966C14.4065 21.2756 14.2747 21.5393 14.1472 21.7304C15.5249 24.5254 19.5986 24.622 20.9192 21.748ZM17.252 7.58445H17.8035C17.9067 7.58445 17.9902 7.66794 17.9902 7.77122V8.59299H18.812C18.9153 8.59299 18.9988 8.67649 18.9988 8.77976V9.33127C18.9988 9.43455 18.9153 9.51804 18.812 9.51804H17.9902V10.3398C17.9902 10.4431 17.9067 10.5266 17.8035 10.5266H17.252C17.1487 10.5266 17.0652 10.4431 17.0652 10.3398V9.51804H16.2434C16.1401 9.51804 16.0566 9.43455 16.0566 9.33127V8.77976C16.0566 8.67649 16.1401 8.59299 16.2434 8.59299H17.0652V7.77122C17.0652 7.66794 17.1487 7.58445 17.252 7.58445ZM25.7246 19.81C27.4583 19.81 29.0271 20.5132 30.1609 21.6469C31.2969 22.7829 32 24.3518 32 26.0832C32 27.8169 31.2969 29.3857 30.1609 30.5195C29.0249 31.6555 27.4561 32.3564 25.7246 32.3564C23.991 32.3564 22.4221 31.6533 21.2883 30.5195C20.783 30.0141 20.3611 29.4209 20.0513 28.7661H6.37109C5.50977 28.7002 5.07251 28.2563 5 27.4851C5.20874 25.9624 5.25928 25.6526 6.18433 24.4309C6.51172 23.998 6.92041 23.6772 7.37305 23.4245C8.75732 22.6533 12.4004 22.4094 13.8066 21.3349C13.8945 21.1855 13.9846 20.9966 14.0725 20.7966C14.2395 20.4143 14.3933 19.9968 14.49 19.7112C14.0813 19.23 13.7319 18.6894 13.3979 18.1555L12.2927 16.3977C11.8884 15.7956 11.6775 15.2441 11.6665 14.7915C11.6599 14.5783 11.6973 14.385 11.7742 14.2158C11.8577 14.0378 11.9829 13.8884 12.1543 13.7741C12.2334 13.7192 12.3235 13.6753 12.4224 13.6379C12.3499 12.6843 12.3235 11.4824 12.3696 10.4782C12.3938 10.2387 12.4399 10.0014 12.5059 9.76194C14.2373 3.57883 22.5386 5.7783 22.9033 10.8825L22.8352 13.75C23.1406 13.8423 23.3384 14.0378 23.4175 14.352C23.5054 14.7014 23.4109 15.1914 23.1143 15.8615C23.1099 15.8747 23.1033 15.8857 23.0945 15.8967L21.8354 17.9709C21.3718 18.7334 20.9038 19.498 20.2908 20.1001C20.3457 20.1792 20.4006 20.2605 20.4556 20.3396C20.6621 20.6406 20.8687 20.9438 21.1147 21.2229C21.2158 21.313 21.3301 21.3965 21.4575 21.4778C22.5803 20.445 24.0789 19.81 25.7246 19.81ZM29.3699 22.4402C28.436 21.5063 27.1484 20.9306 25.7246 20.9306C24.3008 20.9306 23.0132 21.5085 22.0793 22.4402C21.1455 23.3718 20.5698 24.6616 20.5698 26.0854C20.5698 27.5093 21.1477 28.7969 22.0793 29.7307C23.011 30.6645 24.3008 31.2402 25.7246 31.2402C27.1484 31.2402 28.436 30.6623 29.3699 29.7307C30.3015 28.799 30.8794 27.5093 30.8794 26.0854C30.8794 24.6616 30.3037 23.374 29.3699 22.4402ZM18.8472 14.7387C18.7549 14.6772 18.7307 14.5542 18.7922 14.4619C18.8538 14.3696 18.9768 14.3454 19.0691 14.407C19.179 14.4795 19.3657 14.519 19.5657 14.5146C19.7546 14.5124 19.9436 14.4707 20.0798 14.3828C20.1721 14.3235 20.2952 14.352 20.3545 14.4443C20.4138 14.5366 20.3853 14.6596 20.293 14.719C20.093 14.8464 19.8271 14.9079 19.5723 14.9123C19.2954 14.9189 19.0229 14.8574 18.8472 14.7387ZM21.8003 13.583C21.7937 13.3677 21.7168 13.1589 21.5784 12.9634L21.5718 12.948L21.5696 12.9524C20.2556 11.0935 13.7166 10.2541 13.4353 14.1345L13.4463 14.1609L12.9629 14.1213L12.998 14.2334L12.9651 14.1587C12.7651 14.1762 12.6091 14.2246 12.4993 14.2993C12.4268 14.3476 12.374 14.4092 12.3389 14.4839C12.3015 14.5652 12.2839 14.6662 12.2861 14.7805C12.2949 15.1167 12.4729 15.5561 12.8135 16.0637L12.8179 16.0703L13.9231 17.8281C16.7202 22.2644 19.2603 21.0185 21.3037 17.6523L22.5496 15.6023C22.7825 15.0727 22.866 14.719 22.8132 14.5102C22.7825 14.3872 22.644 14.3257 22.4133 14.3147C22.365 14.3125 22.3123 14.3125 22.2617 14.3125C22.2068 14.3147 22.1475 14.3169 22.0881 14.3235C22.0815 14.3235 22.075 14.3235 22.0684 14.3257L21.8003 13.583ZM14.813 14.7387C14.7207 14.6772 14.6965 14.5542 14.7581 14.4619C14.8196 14.3696 14.9426 14.3454 15.0349 14.407C15.147 14.4817 15.3359 14.5234 15.5403 14.5234C15.7314 14.5234 15.927 14.4817 16.0808 14.3938C16.1753 14.3388 16.2983 14.3718 16.3533 14.4663C16.4082 14.5608 16.3752 14.6838 16.2808 14.7387C16.0654 14.864 15.7974 14.9189 15.5425 14.9211C15.2612 14.9233 14.9888 14.8574 14.813 14.7387ZM14.7317 13.8511C14.6416 13.9148 14.5186 13.8928 14.4548 13.8049C14.3911 13.7148 14.4109 13.5918 14.501 13.5281C14.7976 13.3171 15.1008 13.2116 15.4128 13.2094C15.7227 13.2073 16.0325 13.3127 16.3423 13.5259C16.4324 13.5874 16.4543 13.7126 16.3928 13.8027C16.3313 13.8928 16.2061 13.917 16.116 13.8532C15.8743 13.6863 15.6414 13.605 15.4128 13.6072C15.1887 13.605 14.9602 13.6885 14.7317 13.8511ZM19.0361 13.8511C18.946 13.9148 18.823 13.8928 18.7593 13.8049C18.6956 13.7148 18.7175 13.5918 18.8054 13.5281C19.1021 13.3171 19.4053 13.2116 19.7173 13.2094C20.0271 13.2073 20.3369 13.3127 20.6467 13.5259C20.7368 13.5874 20.7588 13.7126 20.6973 13.8027C20.6357 13.8928 20.5105 13.917 20.4204 13.8532C20.1787 13.6863 19.9458 13.605 19.7173 13.6072C19.4932 13.605 19.2646 13.6885 19.0361 13.8511Z" fill="#DF4C4C"/>
<defs>
<linearGradient id="paint0_linear_361_7006" x1="19" y1="0" x2="19" y2="38" gradientUnits="userSpaceOnUse">
<stop stop-color="#FFE9E9"/>
<stop offset="1" stop-color="#FABBBB"/>
</linearGradient>
</defs>
</svg>
