<svg width="38" height="38" viewBox="0 0 38 38" fill="none" xmlns="http://www.w3.org/2000/svg">
<circle cx="19" cy="19" r="18.5" fill="url(#paint0_linear_361_7000)" stroke="white"/>
<g clip-path="url(#clip0_361_7000)">
<path fill-rule="evenodd" clip-rule="evenodd" d="M23.2344 22.985C24.75 23.7883 27.3691 23.7668 28.6621 24.484C29.1373 24.7395 29.5538 25.0917 29.8848 25.5179C30.666 26.5401 30.8242 29.6456 31 31H23.7734C23.7525 30.8804 23.7218 30.7628 23.6816 30.6482L22.7227 27.8437C23.0126 27.8013 23.2839 27.6757 23.5039 27.4821C24.0059 27.056 24.168 26.4736 24 25.7388V25.6958L23.4434 23.6124L23.4316 23.5655C23.387 23.3676 23.3215 23.175 23.2363 22.9909L23.2344 22.985ZM24.6172 14.6652C24.7697 14.7043 24.9085 14.7849 25.0181 14.898C25.1277 15.0111 25.2039 15.1524 25.2383 15.3062C25.332 15.6756 25.2383 16.1954 24.916 16.9049C24.9087 16.9175 24.9022 16.9306 24.8965 16.944L23.5566 19.1446C23.0391 19.9928 22.5137 20.8411 21.8145 21.4899C21.439 21.8569 20.9944 22.1457 20.5066 22.3396C20.0188 22.5335 19.4975 22.6287 18.9727 22.6196C17.9656 22.6259 16.9958 22.2388 16.2695 21.5407C15.5879 20.9212 15.0684 20.1199 14.5723 19.3362L13.4004 17.4736C12.9707 16.8345 12.748 16.2502 12.7324 15.7713C12.7236 15.5619 12.7631 15.3533 12.8477 15.1616C12.935 14.971 13.0745 14.809 13.25 14.6945C13.339 14.6351 13.4347 14.5865 13.5352 14.5498C13.4533 13.4352 13.4344 12.3168 13.4785 11.2C13.5051 10.943 13.5535 10.6886 13.623 10.4397C13.9505 9.38183 14.6582 8.4829 15.6094 7.91662C15.946 7.70295 16.3049 7.52666 16.6797 7.39089C18.9395 6.57786 21.9355 7.02346 23.5391 8.75897C24.1914 9.46255 24.6016 10.3968 24.6914 11.6319L24.6172 14.6652ZM14.4609 15.3453C14.2642 15.3431 14.0703 15.3923 13.8984 15.488C13.8293 15.5326 13.7739 15.5955 13.7383 15.6697C13.6974 15.7611 13.6786 15.8609 13.6836 15.9609C13.6934 16.2912 13.8789 16.7212 14.2148 17.2156L15.332 18.9394C15.7793 19.6313 16.25 20.3349 16.832 20.8528C17.4147 21.3966 18.1837 21.696 18.9805 21.6893C19.8204 21.707 20.6336 21.3931 21.2441 20.8156C21.8457 20.2684 22.3223 19.5199 22.791 18.7713L24.041 16.772C24.2734 16.2521 24.3594 15.9062 24.3066 15.701C24.2734 15.5798 24.1367 15.5212 23.9023 15.5055H23.748H23.5723C23.5405 15.5095 23.5083 15.5095 23.4766 15.5055C23.361 15.5106 23.2451 15.5041 23.1309 15.486L23.5625 14.0358C21.2578 14.0007 19.6953 13.6117 17.8262 12.4586C16.2637 11.4932 15.1875 11.372 14.5957 13.5668L14.8398 15.359C14.7095 15.3678 14.5786 15.3632 14.4492 15.3453H14.4609ZM15.3398 25.987L15.8926 23.8782C16.0137 23.4189 16.2227 23.1707 16.5801 23.2782L18.7598 24.2945C19.041 24.4254 18.9551 24.4156 19.2461 24.2808L21.2578 23.329C21.6895 23.1082 21.9629 23.3095 22.0996 23.8782L22.6719 26.0476C22.7598 26.4384 22.6172 26.5596 22.2266 26.4169L20.9766 25.8052C20.7187 25.6821 20.5859 25.8052 20.6895 26.1375L22.3438 30.9746H20.0156C20.0031 30.9374 19.9927 30.8996 19.9844 30.8612L19.0078 26.4756L18.002 30.8749C18.002 30.9082 17.9844 30.9414 17.9746 30.9746H15.6074L17.3223 26.0886C17.416 25.7583 17.2715 25.6977 17.0293 25.8111L15.7305 26.4091C15.3633 26.6046 15.2559 26.4345 15.3398 25.987ZM14.1875 31H7C7.17578 29.6456 7.34375 26.5401 8.11523 25.5277C8.44579 25.0962 8.86464 24.7404 9.34375 24.484C10.7754 23.6847 13.2324 23.8196 14.7559 23.0007C14.6735 23.1697 14.6081 23.3464 14.5605 23.5283L14.0312 25.5844C14.0176 25.6313 14.0039 25.6821 13.9941 25.7329C13.875 26.372 13.9688 26.9055 14.3184 27.3257C14.5442 27.6228 14.8731 27.8244 15.2402 27.8906L14.2676 30.6482C14.2463 30.706 14.23 30.7655 14.2188 30.8261C14.2051 30.8886 14.1953 30.9492 14.1875 31.0098V31Z" fill="black"/>
</g>
<defs>
<linearGradient id="paint0_linear_361_7000" x1="19" y1="0" x2="19" y2="38" gradientUnits="userSpaceOnUse">
<stop stop-color="white"/>
<stop offset="1" stop-color="#E3DEDE"/>
</linearGradient>
<clipPath id="clip0_361_7000">
<rect width="24" height="24" fill="white" transform="translate(7 7)"/>
</clipPath>
</defs>
</svg>
