<svg width="36" height="36" viewBox="0 0 36 36" fill="none" xmlns="http://www.w3.org/2000/svg">
<rect x="0.5" y="0.5" width="35" height="35" rx="17.5" fill="url(#paint0_linear_361_7010)"/>
<rect x="0.5" y="0.5" width="35" height="35" rx="17.5" stroke="#FFCB76"/>
<path d="M21.9902 26V10C21.9902 9.46957 21.7795 8.96086 21.4044 8.58579C21.0294 8.21071 20.5207 8 19.9902 8H15.9902C15.4598 8 14.9511 8.21071 14.576 8.58579C14.2009 8.96086 13.9902 9.46957 13.9902 10V26" stroke="white" stroke-width="1.99997" stroke-linecap="round" stroke-linejoin="round"/>
<path d="M25.9902 12H9.99023C8.88566 12 7.99023 12.8954 7.99023 14V24C7.99023 25.1046 8.88566 26 9.99023 26H25.9902C27.0948 26 27.9902 25.1046 27.9902 24V14C27.9902 12.8954 27.0948 12 25.9902 12Z" stroke="white" stroke-width="1.99997" stroke-linecap="round" stroke-linejoin="round"/>
<defs>
<linearGradient id="paint0_linear_361_7010" x1="0" y1="0" x2="36" y2="36" gradientUnits="userSpaceOnUse">
<stop stop-color="#FCD3B5"/>
<stop offset="1" stop-color="#FBDA7C"/>
</linearGradient>
</defs>
</svg>
