<svg width="38" height="38" viewBox="0 0 38 38" fill="none" xmlns="http://www.w3.org/2000/svg">
<rect width="38" height="38" rx="19" fill="url(#paint0_linear_361_7030)"/>
<rect x="0.5" y="0.5" width="37" height="37" rx="18.5" stroke="#994DFF" stroke-opacity="0.23"/>
<g clip-path="url(#clip0_361_7030)">
<path fill-rule="evenodd" clip-rule="evenodd" d="M5.42137 17.1348C4.99862 17.3087 4.52694 17.3306 4.08934 17.1967C3.80141 17.104 3.54663 16.9321 3.35521 16.7014C3.16028 16.4616 3.03946 16.172 3.00707 15.8668C2.98418 15.5936 3.01701 15.3186 3.10364 15.0579C3.19028 14.7973 3.32897 14.5562 3.51163 14.3487C3.53324 14.3238 3.55686 14.3006 3.58226 14.2794L18.1715 5.11378C18.2481 5.04463 18.3472 5.00443 18.4512 5.00034C18.5551 4.99626 18.6572 5.02856 18.7392 5.09149L33.3461 14.2546C33.3661 14.2676 33.384 14.2834 33.3991 14.3017C33.6385 14.5287 33.8154 14.8115 33.9133 15.1237C34.0112 15.4359 34.027 15.7674 33.9591 16.0873C33.8938 16.3534 33.762 16.5993 33.5757 16.803C33.392 17.0072 33.1585 17.1623 32.897 17.2537C32.6657 17.3327 32.4206 17.3653 32.1761 17.3496C31.9317 17.3339 31.693 17.2701 31.4742 17.1621V28.9701H30.4323V16.7733C30.4323 16.5652 19.4582 10.0544 18.55 9.36102C17.5888 10.0792 6.46329 16.5429 6.46329 16.8079V28.9999H5.42137V17.1348ZM23.6788 18.5687H26.5648L27.574 22.2266H22.6848L23.6939 18.5687H23.6788ZM25.4018 22.8308V28.1207H26.2167C26.2699 28.1263 26.3191 28.1511 26.3548 28.1902C26.3905 28.2293 26.4103 28.2799 26.4103 28.3324C26.4103 28.3849 26.3905 28.4356 26.3548 28.4747C26.3191 28.5138 26.2699 28.5385 26.2167 28.5442H24.0421C23.9889 28.5385 23.9397 28.5138 23.904 28.4747C23.8682 28.4356 23.8485 28.3849 23.8485 28.3324C23.8485 28.2799 23.8682 28.2293 23.904 28.1902C23.9397 28.1511 23.9889 28.1263 24.0421 28.1207H24.8494V22.8308H25.4018ZM17.6241 27.9003V28.5268H16.9984V27.9003H11.1708V28.5268H10.5426V27.9028H10.3231C10.133 27.9163 9.94449 27.8608 9.79336 27.7467C9.71673 27.6771 9.65665 27.5917 9.61741 27.4967C9.57817 27.4017 9.56073 27.2993 9.56631 27.1969V23.3261C9.40559 23.2832 9.25185 23.2182 9.10969 23.133C8.93814 23.0323 8.80178 22.8829 8.71866 22.7045C8.59149 22.4771 8.54129 22.2158 8.5753 21.9585C8.60931 21.7012 8.72578 21.4612 8.90787 21.2731C9.05878 21.1195 9.24344 21.0018 9.44774 20.9289C9.6527 20.8561 9.87159 20.829 10.0885 20.8496C10.2503 20.8604 10.4086 20.9007 10.5552 20.9685V19.5073C10.5552 18.7248 10.6763 18.3161 10.9841 18.0858C11.2919 17.8555 11.7157 17.8555 12.3717 17.8555H15.8077C16.5216 17.8555 16.9556 17.8827 17.2406 18.1329C17.5257 18.383 17.609 18.8139 17.609 19.6188V21.0502C17.8054 20.96 18.0203 20.9151 18.2371 20.919C18.4446 20.9196 18.6498 20.9617 18.8401 21.0428C19.0331 21.1189 19.2057 21.2375 19.3446 21.3895C19.5063 21.5728 19.6047 21.8017 19.6255 22.0433C19.6464 22.285 19.5887 22.5269 19.4607 22.7343C19.3696 22.9041 19.2347 23.0475 19.0697 23.1503C18.928 23.2378 18.7742 23.3045 18.613 23.3484V27.192C18.6191 27.2938 18.6021 27.3957 18.5633 27.4904C18.5244 27.585 18.4648 27.67 18.3885 27.7393C18.2374 27.8533 18.0488 27.9089 17.8587 27.8953H17.6342L17.6241 27.9003ZM10.9412 21.2459C11.0688 21.3896 11.1634 21.5585 11.2187 21.7412C11.2516 21.8442 11.2727 21.9505 11.2818 22.0582C11.2919 22.1768 11.2919 22.2961 11.2818 22.4148V22.9101H16.8824V22.4148C16.8725 22.3002 16.8725 22.1851 16.8824 22.0705C16.8897 21.9559 16.9152 21.8431 16.9581 21.7362C17.0203 21.5803 17.111 21.4368 17.2255 21.3127V19.6114C17.2255 18.9303 17.1725 18.5786 16.9732 18.4152C16.7739 18.2517 16.4182 18.2369 15.7976 18.2369H12.3717C11.7965 18.2369 11.4155 18.2369 11.2137 18.3929C11.0119 18.5489 10.9412 18.861 10.9412 19.5123V21.2459ZM11.2818 23.3063V23.9428H16.8824V23.3063H11.2818ZM10.0709 21.2186C9.90807 21.2074 9.7447 21.2301 9.59154 21.2855C9.465 21.3252 9.34908 21.3921 9.25223 21.4814C9.15538 21.5707 9.08004 21.6801 9.0317 21.8015C8.98336 21.923 8.96324 22.0536 8.9728 22.1836C8.98237 22.3137 9.02137 22.4401 9.08698 22.5535C9.13377 22.6655 9.21264 22.7619 9.31403 22.8308C9.46336 22.9192 9.62729 22.9812 9.79841 23.0141C9.84114 23.0231 9.87945 23.0462 9.90698 23.0796C9.9345 23.1129 9.94961 23.1545 9.94978 23.1974V27.1895C9.94417 27.2377 9.94914 27.2865 9.96437 27.3327C9.97961 27.3788 10.0047 27.4212 10.0381 27.457C10.1205 27.5158 10.2216 27.5439 10.3231 27.5362H10.8958V22.3999C10.9059 22.3011 10.9059 22.2015 10.8958 22.1027C10.8905 22.0185 10.8744 21.9353 10.8479 21.8551C10.8008 21.6834 10.7009 21.5302 10.5618 21.4163C10.4228 21.3024 10.2513 21.2334 10.0709 21.2186ZM17.2835 23.0612C17.2861 23.0801 17.2861 23.0992 17.2835 23.1181C17.2861 23.1378 17.2861 23.1578 17.2835 23.1775V24.0914C17.2869 24.1194 17.2869 24.1476 17.2835 24.1756V27.5214H17.8562C17.9566 27.5314 18.0577 27.5087 18.1438 27.457C18.2076 27.3835 18.2394 27.2883 18.2321 27.192V23.185C18.2321 23.1396 18.2487 23.0957 18.2787 23.0612C18.3088 23.0267 18.3504 23.0038 18.3961 22.9968C18.5621 22.9641 18.721 22.9029 18.8653 22.816C18.9722 22.7495 19.0593 22.6563 19.1176 22.546C19.2095 22.4055 19.2532 22.2398 19.2423 22.0732C19.2314 21.9065 19.1665 21.7477 19.057 21.6198C18.9583 21.5128 18.8369 21.4283 18.7013 21.3722C18.5566 21.3126 18.4016 21.2806 18.2447 21.2781C18.0471 21.2716 17.8524 21.3255 17.6874 21.4325C17.5225 21.5394 17.3954 21.694 17.3239 21.8749C17.2969 21.9455 17.2816 22.0199 17.2785 22.0953C17.2698 22.1958 17.2698 22.2969 17.2785 22.3974C17.2797 22.4032 17.2797 22.4091 17.2785 22.4148V23.0612H17.2835ZM11.2919 27.5189H16.8824V24.3167H11.2818V27.5214L11.2919 27.5189ZM27.8994 5.74282L31.4994 5.88645V10.6463L27.8994 8.9623V5.74282Z" fill="#6B398F"/>
</g>
<defs>
<linearGradient id="paint0_linear_361_7030" x1="0" y1="0" x2="33" y2="39.5" gradientUnits="userSpaceOnUse">
<stop stop-color="white"/>
<stop offset="1" stop-color="#CE9DF5"/>
</linearGradient>
<clipPath id="clip0_361_7030">
<rect width="31" height="24" fill="white" transform="translate(3 5)"/>
</clipPath>
</defs>
</svg>
