<svg width="38" height="38" viewBox="0 0 38 38" fill="none" xmlns="http://www.w3.org/2000/svg">
<rect width="38" height="38" rx="19" fill="url(#paint0_linear_361_7024)"/>
<rect x="0.5" y="0.5" width="37" height="37" rx="18.5" stroke="#BBF0DE" stroke-opacity="0.68"/>
<g clip-path="url(#clip0_361_7024)">
<path fill-rule="evenodd" clip-rule="evenodd" d="M19.4066 8.64678C20.6503 7.36002 21.503 6.2524 23.4027 6.03038C26.9573 5.62164 30.2495 9.28006 28.4483 12.8678C27.9437 13.8922 26.8917 15.1108 25.7363 16.3042C24.4698 17.6061 23.0671 18.9004 22.0858 19.8769L19.4066 22.5336L17.1941 20.4017C14.53 17.8382 10.1883 14.6087 10.0546 10.6097C9.94613 7.80913 12.1561 6.01272 14.6991 6.04552C16.9696 6.07579 17.9257 7.20612 19.4066 8.64678ZM16.0942 13.9048C15.9418 13.7438 15.8572 13.5304 15.8579 13.3087C15.8586 13.087 15.9446 12.8741 16.0981 12.7142C16.2516 12.5542 16.4607 12.4594 16.6821 12.4495C16.9036 12.4396 17.1203 12.5153 17.2874 12.6609L18.5993 13.9225L21.7175 11.021C21.7254 11.0105 21.7347 11.0012 21.7452 10.9932C21.916 10.8516 22.1343 10.7803 22.3557 10.7939C22.4685 10.7987 22.5792 10.8259 22.6815 10.8737C22.7837 10.9216 22.8755 10.9892 22.9515 11.0727C23.0275 11.1562 23.0862 11.2539 23.1242 11.3602C23.1623 11.4665 23.1789 11.5793 23.1731 11.6921C23.1578 11.9124 23.0585 12.1183 22.8956 12.2673L19.1846 15.7365C19.1783 15.7446 19.1706 15.7514 19.1619 15.7567C19.0003 15.8994 18.7909 15.9761 18.5754 15.9714C18.3599 15.9667 18.1541 15.8811 17.9989 15.7315L16.0942 13.9048Z" fill="#38AE48"/>
<path d="M5.0293 21.5295H6.45215H6.56315V20.5203C6.56315 20.5051 6.56315 20.49 6.56315 20.4748C6.57549 20.2109 6.68908 19.9619 6.88032 19.7795C7.07156 19.5972 7.32571 19.4956 7.58993 19.4959H9.01278H9.12378V18.4867C9.12445 18.2145 9.23284 17.9537 9.42525 17.7613C9.61766 17.5689 9.87844 17.4605 10.1506 17.4598H11.5684C11.8401 17.4618 12.1001 17.5706 12.2922 17.7628C12.4843 17.9549 12.5932 18.2149 12.5951 18.4867V30.9783C12.5931 31.2496 12.4842 31.5091 12.2919 31.7004C12.0996 31.8918 11.8396 31.9995 11.5684 32.0001H10.1077C9.8514 31.9894 9.60841 31.8832 9.42651 31.7024C9.23624 31.5092 9.12858 31.2495 9.1263 30.9783V30.1078C9.09019 30.1103 9.05394 30.1103 9.01782 30.1078H7.54704C7.29137 30.0956 7.04942 29.9886 6.86841 29.8076C6.77261 29.713 6.69669 29.6002 6.64513 29.4759C6.59357 29.3515 6.56742 29.2181 6.5682 29.0835V27.9077H6.45719H5.03182C4.89703 27.9082 4.76352 27.8816 4.63917 27.8296C4.51481 27.7776 4.40213 27.7012 4.30778 27.605C4.21122 27.5116 4.13425 27.3999 4.0814 27.2765C4.02855 27.153 4.00088 27.0202 4 26.8859V22.5589C4 22.2859 4.10844 22.024 4.30147 21.831C4.4945 21.6379 4.75631 21.5295 5.0293 21.5295ZM28.8469 18.3631H27.4089C27.3839 18.366 27.3607 18.3776 27.3433 18.3959C27.3225 18.4166 27.3107 18.4447 27.3105 18.4741V30.9783C27.3117 31.0075 27.3233 31.0352 27.3433 31.0565C27.365 31.076 27.3925 31.0875 27.4215 31.0893H28.8595C28.8842 31.0851 28.907 31.0737 28.9251 31.0565C28.9463 31.0358 28.9589 31.0079 28.9605 30.9783C28.9605 26.8119 28.9605 22.6447 28.9605 18.4766C28.9605 18.462 28.9576 18.4476 28.952 18.4341C28.9464 18.4207 28.9381 18.4085 28.9277 18.3984C28.9179 18.3881 28.9061 18.3799 28.8931 18.3743C28.8801 18.3687 28.8661 18.3657 28.852 18.3656L28.8469 18.3631ZM24.5153 23.4899V26.1517H14.6335V23.4874L24.5153 23.4899ZM33.9707 22.4479H32.5479C32.5331 22.4473 32.5183 22.4496 32.5044 22.4548C32.4906 22.46 32.4779 22.468 32.4671 22.4781C32.4497 22.4958 32.4389 22.519 32.4368 22.5437V22.5589V26.8809C32.4406 26.9049 32.4521 26.9271 32.4696 26.9439C32.491 26.9637 32.5187 26.9754 32.5479 26.9767H33.9707C33.9857 26.977 34.0005 26.9742 34.0144 26.9686C34.0283 26.963 34.0409 26.9546 34.0514 26.9439C34.0723 26.9232 34.0841 26.8951 34.0842 26.8657V22.5589C34.0842 22.5294 34.0725 22.5012 34.0517 22.4804C34.0309 22.4596 34.0027 22.4479 33.9732 22.4479H33.9707ZM32.5479 21.5295H33.9732C34.2449 21.5315 34.5049 21.6403 34.6971 21.8324C34.8892 22.0246 34.998 22.2846 35 22.5564V26.8783C34.998 27.1501 34.8892 27.4101 34.6971 27.6023C34.5049 27.7944 34.2449 27.9032 33.9732 27.9052H32.5504H32.4394V29.086C32.4383 29.3579 32.3294 29.6184 32.1366 29.8101C31.9437 30.0026 31.6826 30.1114 31.4101 30.1129H29.9847C29.9477 30.1155 29.9107 30.1155 29.8737 30.1129V30.9783C29.8707 31.2398 29.7675 31.4903 29.5854 31.678C29.4033 31.8658 29.1562 31.9765 28.8949 31.9875H27.4266C27.1568 31.987 26.8979 31.8811 26.7051 31.6923C26.5136 31.5036 26.4039 31.2471 26.3998 30.9783V18.4816C26.3988 18.3443 26.4253 18.2081 26.4777 18.0811C26.5302 17.9542 26.6075 17.839 26.7051 17.7424C26.8856 17.5591 27.1292 17.4518 27.3862 17.4421H28.8545C29.1266 17.4428 29.3874 17.5512 29.5798 17.7436C29.7722 17.9361 29.8806 18.1969 29.8813 18.469V19.4909C29.9182 19.487 29.9554 19.487 29.9923 19.4909H31.4176C31.6899 19.4914 31.951 19.5993 32.1442 19.7911C32.2396 19.8865 32.3153 19.9998 32.3668 20.1245C32.4183 20.2492 32.4447 20.3828 32.4444 20.5177V21.5396L32.5479 21.5295ZM31.4076 20.4042H29.9847C29.9701 20.4037 29.9555 20.4063 29.942 20.412C29.9285 20.4176 29.9164 20.4262 29.9065 20.437C29.8962 20.4468 29.8881 20.4585 29.8824 20.4715C29.8768 20.4845 29.8738 20.4985 29.8737 20.5127V29.091C29.8737 29.1201 29.885 29.1479 29.9053 29.1687C29.9256 29.1894 29.9532 29.2014 29.9822 29.2021H31.4076C31.4221 29.2021 31.4366 29.1993 31.45 29.1936C31.4634 29.188 31.4756 29.1797 31.4858 29.1693C31.5066 29.1486 31.5184 29.1204 31.5186 29.091V20.5127C31.5184 20.4833 31.5066 20.4552 31.4858 20.4345C31.4762 20.4232 31.4642 20.4144 31.4506 20.4087C31.437 20.403 31.4223 20.4006 31.4076 20.4017V20.4042ZM10.0547 30.9783C10.055 30.9927 10.0583 31.0068 10.0644 31.0199C10.0704 31.0329 10.0792 31.0445 10.09 31.054C10.1065 31.0725 10.1287 31.0849 10.1531 31.0893H11.5684C11.5832 31.0894 11.5978 31.0862 11.6113 31.0801C11.6248 31.074 11.6368 31.0651 11.6466 31.054C11.6571 31.0439 11.6655 31.0318 11.6711 31.0183C11.6768 31.0048 11.6796 30.9904 11.6794 30.9758V18.469C11.6799 18.4544 11.6772 18.4398 11.6716 18.4263C11.6659 18.4128 11.6574 18.4007 11.6466 18.3908C11.6251 18.3718 11.597 18.3618 11.5684 18.3631H10.1531C10.124 18.3644 10.0963 18.376 10.0749 18.3959C10.0545 18.4169 10.0427 18.4448 10.0421 18.4741V30.9783H10.0547ZM9.13639 29.1112V20.5329V20.5177C9.13486 20.4936 9.12401 20.471 9.10612 20.4547C9.09557 20.444 9.08298 20.4356 9.06911 20.43C9.05523 20.4244 9.04036 20.4216 9.02539 20.4219H7.58993C7.56024 20.4229 7.53216 20.4356 7.51172 20.4572C7.49401 20.4739 7.48246 20.4961 7.47892 20.5203V20.5354V29.1138C7.47907 29.1431 7.49087 29.1713 7.51172 29.192C7.52985 29.2092 7.55268 29.2206 7.57731 29.2248H9.0153C9.04129 29.2226 9.0659 29.2121 9.08544 29.1948C9.10499 29.1776 9.11843 29.1544 9.12378 29.1289L9.13639 29.1112ZM6.45215 22.4479H5.02677C5.0122 22.4478 4.99777 22.4507 4.98433 22.4563C4.9709 22.4619 4.95873 22.4702 4.94857 22.4807C4.92772 22.5014 4.91592 22.5295 4.91577 22.5589V26.8809C4.91692 26.91 4.92857 26.9378 4.94857 26.9591C4.97018 26.9785 4.99775 26.9901 5.02677 26.9919H6.45215C6.48159 26.9919 6.50982 26.9802 6.53064 26.9594C6.55146 26.9385 6.56315 26.9103 6.56315 26.8809V22.5564C6.56261 22.5278 6.55083 22.5006 6.53035 22.4807C6.52036 22.4709 6.50853 22.4632 6.49554 22.458C6.48255 22.4528 6.46866 22.4502 6.45467 22.4504L6.45215 22.4479Z" fill="#565F59"/>
</g>
<defs>
<linearGradient id="paint0_linear_361_7024" x1="0" y1="0" x2="38" y2="38" gradientUnits="userSpaceOnUse">
<stop stop-color="white"/>
<stop offset="1" stop-color="#9BEACF"/>
</linearGradient>
<clipPath id="clip0_361_7024">
<rect width="31" height="26" fill="white" transform="translate(4 6)"/>
</clipPath>
</defs>
</svg>
