<svg width="38" height="38" viewBox="0 0 38 38" fill="none" xmlns="http://www.w3.org/2000/svg">
<rect x="0.5" y="0.5" width="37" height="37" rx="18.5" fill="url(#paint0_linear_361_7015)"/>
<rect x="0.5" y="0.5" width="37" height="37" rx="18.5" stroke="#EBFDF5"/>
<g clip-path="url(#clip0_361_7015)">
<path fill-rule="evenodd" clip-rule="evenodd" d="M12.886 20.325L12.861 21.8866H15.7184C16.007 21.8871 16.2838 21.9984 16.4896 22.1965C16.6953 22.3946 16.8136 22.6637 16.819 22.9462V24.0237V28.2399C16.8178 28.5253 16.7014 28.7986 16.4953 29.0004C16.2891 29.2023 16.0099 29.3162 15.7184 29.3173H14.6064V24.4096C14.6064 23.9634 14.693 24.0192 14.2555 24.0192H11.4254H10.0149C9.57673 24.0175 9.157 23.8463 8.84715 23.5429C8.5373 23.2396 8.36243 22.8287 8.36063 22.3997V17.0993C8.36123 16.6627 8.53852 16.244 8.85369 15.9351C9.16887 15.6261 9.59624 15.4519 10.0423 15.4508H10.874C12.1933 15.4508 12.3255 16.0687 12.6627 16.7156L14.0686 17.2577C15.0849 17.7039 14.8251 17.7953 15.5156 16.9588L16.4134 15.8679C16.8531 15.1808 18.5917 15.8992 17.8466 17.0525L16.5432 18.7947C15.9986 19.5219 15.2786 19.6246 14.4059 19.2676L12.886 18.7434V20.325ZM19.1181 15.0001C19.6078 15.4679 20.2312 15.7788 20.9055 15.8915C21.5799 16.0043 22.2734 15.9136 22.8938 15.6315L24.0628 16.0776L23.6754 15.1853C24.9742 14.1658 24.7418 12.7649 23.7848 11.8101C23.7211 12.1738 23.5955 12.5244 23.4134 12.8474C23.1445 13.3161 22.7781 13.7242 22.3378 14.0454C21.8862 14.3787 21.3778 14.6309 20.8362 14.7905C20.2795 14.9548 19.6993 15.0301 19.1181 15.0135V15.0001ZM20.9137 10.7081C21.0142 10.7081 21.1124 10.7373 21.196 10.792C21.2796 10.8466 21.3447 10.9243 21.3831 11.0152C21.4216 11.1061 21.4317 11.2061 21.4121 11.3026C21.3925 11.3991 21.3441 11.4878 21.273 11.5573C21.2019 11.6269 21.1114 11.6743 21.0128 11.6935C20.9142 11.7127 20.8121 11.7028 20.7192 11.6652C20.6264 11.6275 20.547 11.5638 20.4912 11.482C20.4354 11.4002 20.4055 11.304 20.4055 11.2056C20.4055 11.0736 20.4591 10.9471 20.5544 10.8538C20.6497 10.7605 20.7789 10.7081 20.9137 10.7081ZM17.5527 10.7081C17.6532 10.7081 17.7514 10.7373 17.835 10.792C17.9186 10.8466 17.9837 10.9243 18.0221 11.0152C18.0606 11.1061 18.0707 11.2061 18.0511 11.3026C18.0315 11.3991 17.9831 11.4878 17.912 11.5573C17.8409 11.6269 17.7504 11.6743 17.6518 11.6935C17.5532 11.7127 17.4511 11.7028 17.3582 11.6652C17.2654 11.6275 17.186 11.5638 17.1302 11.482C17.0743 11.4002 17.0445 11.304 17.0445 11.2056C17.0445 11.0736 17.0981 10.9471 17.1934 10.8538C17.2887 10.7605 17.4179 10.7081 17.5527 10.7081ZM19.2343 10.7081C19.3348 10.7081 19.4331 10.7373 19.5166 10.792C19.6002 10.8466 19.6653 10.9243 19.7038 11.0152C19.7422 11.1061 19.7523 11.2061 19.7327 11.3026C19.7131 11.3991 19.6647 11.4878 19.5936 11.5573C19.5226 11.6269 19.432 11.6743 19.3335 11.6935C19.2349 11.7127 19.1327 11.7028 19.0399 11.6652C18.947 11.6275 18.8677 11.5638 18.8118 11.482C18.756 11.4002 18.7262 11.304 18.7262 11.2056C18.7262 11.0736 18.7797 10.9471 18.875 10.8538C18.9703 10.7605 19.0996 10.7081 19.2343 10.7081ZM19.3346 7.99995C20.3572 8.01739 21.3436 8.37362 22.1328 9.01049C22.4863 9.28916 22.7711 9.64226 22.9659 10.0435C23.1608 10.4448 23.2608 10.884 23.2584 11.3283C23.2346 11.7737 23.1083 12.2081 22.8889 12.599C22.6695 12.99 22.3627 13.3273 21.9915 13.5858C21.1639 14.1756 20.1568 14.4736 19.1341 14.4313C18.8352 14.4232 18.5377 14.3881 18.2454 14.3265C17.9863 14.274 17.7324 14.1994 17.4866 14.1034L15.7389 14.7726L16.3222 13.4118C15.9879 13.1341 15.713 12.7945 15.5133 12.4124C15.3021 12.006 15.1979 11.5544 15.2102 11.0985C15.2351 10.6537 15.3624 10.2202 15.5826 9.83046C15.8027 9.44067 16.1101 9.10468 16.4817 8.84764C17.307 8.25836 18.3116 7.95961 19.3323 7.99995H19.3346ZM19.3232 8.4171C18.3968 8.37838 17.4843 8.64809 16.7347 9.18226C16.4138 9.40362 16.1483 9.69321 15.9581 10.0293C15.7679 10.3654 15.6579 10.7394 15.6363 11.123C15.6265 11.5102 15.7158 11.8937 15.8961 12.2384C16.0942 12.6101 16.3717 12.9357 16.7096 13.1932L16.8372 13.2914L16.525 14.0231L17.4912 13.6528L17.5709 13.6862C17.8173 13.7876 18.0729 13.866 18.3343 13.9204C18.6011 13.9771 18.8726 14.01 19.1455 14.0186C20.0713 14.0586 20.9837 13.7905 21.734 13.2579C22.053 13.0375 22.3171 12.7495 22.5069 12.4155C22.6966 12.0814 22.8071 11.7098 22.83 11.3283C22.8311 10.9461 22.7439 10.5686 22.5751 10.2241C22.4062 9.87949 22.16 9.57673 21.8548 9.33842C21.1404 8.76481 20.2492 8.4441 19.3255 8.42826L19.3232 8.4171ZM33.0953 28.3001C33.0863 28.2316 33.0543 28.168 33.0042 28.1194C32.6028 27.7288 32.1223 27.4249 31.5937 27.2271C31.1956 27.077 30.7787 26.9802 30.3541 26.9393L30.4384 25.6566H33.4235C33.5735 25.656 33.7173 25.5972 33.8232 25.4931C33.9291 25.389 33.9886 25.2481 33.9886 25.1011C33.9886 22.8101 33.4371 21.0857 33.9886 18.4757C34.1526 17.7016 32.5211 17.5834 32.5211 18.5159V24.4007H26.8769C26.567 24.4007 26.3118 24.8067 26.3118 25.1101V25.5428C26.3118 25.5754 26.325 25.6066 26.3485 25.6296C26.372 25.6526 26.4039 25.6655 26.4371 25.6655H29.4313L29.5475 26.9348C29.0985 26.9627 28.6558 27.0528 28.2327 27.2025C27.7283 27.3814 27.2641 27.6541 26.8655 28.0056C26.8227 28.0442 26.7914 28.0934 26.775 28.148C26.7585 28.2026 26.7575 28.2606 26.7721 28.3157C26.6914 28.3647 26.6262 28.4346 26.5835 28.5177C26.5409 28.6008 26.5226 28.6938 26.5305 28.7864C26.5305 28.9426 26.5939 29.0924 26.7067 29.2028C26.8196 29.3133 26.9726 29.3753 27.1321 29.3753C27.2917 29.3753 27.4447 29.3133 27.5575 29.2028C27.6703 29.0924 27.7337 28.9426 27.7337 28.7864C27.7414 28.693 27.7224 28.5993 27.679 28.5158C27.6355 28.4323 27.5693 28.3623 27.4876 28.3135C27.781 28.0922 28.1077 27.9168 28.456 27.7937C28.8615 27.6504 29.2875 27.5706 29.7184 27.5572L29.7845 28.193V28.2198C29.6558 28.2504 29.5419 28.3235 29.4619 28.4267C29.3818 28.5299 29.3404 28.6569 29.3447 28.7864C29.3396 28.8666 29.3514 28.947 29.3793 29.0227C29.4072 29.0983 29.4506 29.1675 29.5068 29.226C29.5631 29.2846 29.631 29.3313 29.7064 29.3632C29.7817 29.3951 29.863 29.4116 29.9451 29.4116C30.0272 29.4116 30.1085 29.3951 30.1838 29.3632C30.2592 29.3313 30.3271 29.2846 30.3834 29.226C30.4396 29.1675 30.483 29.0983 30.5109 29.0227C30.5388 28.947 30.5506 28.8666 30.5455 28.7864C30.5504 28.6577 30.5097 28.5312 30.4304 28.4284C30.3512 28.3256 30.2381 28.2527 30.1103 28.222V28.1908L30.1536 27.5639C30.566 27.5882 30.9719 27.6755 31.3567 27.8227C31.705 27.9525 32.0297 28.1362 32.3183 28.367C32.2545 28.4163 32.2046 28.4807 32.1731 28.554C32.1416 28.6273 32.1297 28.7073 32.1383 28.7864C32.1517 28.9382 32.2193 29.0805 32.3294 29.1882C32.4394 29.296 32.5848 29.3622 32.7399 29.3753C32.8963 29.3654 33.0437 29.3003 33.1548 29.1919C33.2659 29.0836 33.333 28.9395 33.3437 28.7864C33.3518 28.6918 33.3326 28.5969 33.2883 28.5125C33.244 28.4281 33.1763 28.3576 33.0931 28.309L33.0953 28.3001ZM28.2805 10.3646C27.8254 10.3646 27.3804 10.4967 27.0019 10.7443C26.6235 10.9919 26.3285 11.3438 26.1543 11.7555C25.9801 12.1671 25.9345 12.6202 26.0233 13.0572C26.1121 13.4943 26.3313 13.8957 26.6532 14.2108C26.9751 14.5259 27.3851 14.7405 27.8316 14.8275C28.278 14.9144 28.7407 14.8698 29.1613 14.6993C29.5818 14.5287 29.9412 14.2399 30.1941 13.8694C30.447 13.4989 30.582 13.0633 30.582 12.6177C30.582 12.0201 30.3395 11.447 29.9079 11.0245C29.4763 10.602 28.8909 10.3646 28.2805 10.3646ZM27.3235 19.2029L27.3668 21.8799H24.5094C24.2196 21.8805 23.9418 21.9926 23.7358 22.1922C23.5299 22.3917 23.4124 22.6626 23.4088 22.9462V24.0237H23.4225V28.2399C23.4231 28.5251 23.5389 28.7984 23.7447 29.0003C23.9505 29.2022 24.2295 29.3161 24.5208 29.3173H25.6214V24.3382C25.6214 23.8653 25.8037 24.0281 26.3483 24.0281H28.8046H30.2151C30.6533 24.0264 31.073 23.8552 31.3829 23.5518C31.6927 23.2485 31.8676 22.8376 31.8694 22.4086V16.7825C31.8676 16.3467 31.6898 15.9292 31.3747 15.6212C31.0597 15.3132 30.633 15.1396 30.1878 15.1385H29.3538C27.622 15.1385 27.8977 16.3074 27.1298 17.0413C26.3619 17.7752 26.5647 17.8489 25.5348 17.8489H23.2994C22.2991 17.8288 22.1077 19.6335 23.5273 19.551H25.5781C26.4895 19.551 26.567 19.6937 27.319 19.2052L27.3235 19.2029ZM24.3317 19.8967H16.2539C16.2279 19.8967 16.2029 19.9068 16.1846 19.9248C16.1662 19.9428 16.1559 19.9672 16.1559 19.9926V21.3646C16.1565 21.3898 16.167 21.4139 16.1852 21.4318C16.2035 21.4496 16.2281 21.4599 16.2539 21.4605H19.3619V29.8616C19.3625 29.8952 19.3764 29.9272 19.4006 29.9509C19.4249 29.9746 19.4575 29.9882 19.4918 29.9888H20.9752C21.0093 29.9882 21.0417 29.9746 21.0656 29.9508C21.0894 29.927 21.1028 29.895 21.1028 29.8616V21.4605H24.3317C24.3445 21.4605 24.3573 21.458 24.3692 21.4532C24.381 21.4484 24.3918 21.4413 24.4009 21.4324C24.41 21.4235 24.4173 21.4129 24.4222 21.4013C24.4271 21.3896 24.4296 21.3772 24.4296 21.3646V19.9926C24.4296 19.98 24.4271 19.9676 24.4222 19.9559C24.4173 19.9443 24.41 19.9337 24.4009 19.9248C24.3918 19.9159 24.381 19.9088 24.3692 19.904C24.3573 19.8992 24.3445 19.8967 24.3317 19.8967ZM6.30529 18.8059H7.10737C7.18459 18.8106 7.25743 18.8425 7.31234 18.8959C7.36726 18.9492 7.4005 19.0203 7.40587 19.0959C7.71254 20.9516 7.86495 22.8287 7.8616 24.7085H13.3509C13.4556 24.7085 13.5561 24.7491 13.6304 24.8214C13.7047 24.8937 13.7467 24.9919 13.7473 25.0944V25.873H13.4306V29.8616C13.43 29.8926 13.417 29.9221 13.3944 29.9438C13.3719 29.9655 13.3415 29.9776 13.3098 29.9776H12.2594C12.2278 29.9776 12.1974 29.9655 12.1748 29.9438C12.1522 29.9221 12.1392 29.8926 12.1386 29.8616V28.1239H7.64741C7.58133 28.6526 7.50158 29.179 7.40587 29.7077C7.40009 29.7833 7.36678 29.8544 7.31201 29.9081C7.25723 29.9617 7.18462 29.9943 7.10737 29.9999H6.30529C6.14123 29.9999 5.96121 29.8616 5.99995 29.7077C7.06408 26.105 6.84305 22.5804 5.99995 19.0959C5.96349 18.9419 6.13439 18.8059 6.29845 18.8059H6.30529ZM12.1386 27.5862V25.873H7.84793C7.82287 26.6025 7.77274 26.859 7.69298 27.5862H12.1386ZM10.8238 10.2843C11.2796 10.2838 11.7252 10.4157 12.1043 10.6633C12.4835 10.9108 12.7791 11.2629 12.9538 11.675C13.1285 12.087 13.1745 12.5406 13.0858 12.9782C12.9972 13.4159 12.778 13.8179 12.4559 14.1336C12.1338 14.4492 11.7233 14.6642 11.2764 14.7514C10.8295 14.8386 10.3661 14.7941 9.94506 14.6235C9.52398 14.4528 9.16405 14.1638 8.91081 13.7928C8.65758 13.4219 8.52241 12.9857 8.52241 12.5396C8.52241 11.9418 8.76481 11.3685 9.19635 10.9456C9.62788 10.5227 10.2133 10.2849 10.8238 10.2843Z" fill="url(#paint1_linear_361_7015)"/>
</g>
<defs>
<linearGradient id="paint0_linear_361_7015" x1="0" y1="0" x2="38" y2="38" gradientUnits="userSpaceOnUse">
<stop stop-color="#97F5BD"/>
<stop offset="1" stop-color="#EDFAF6"/>
</linearGradient>
<linearGradient id="paint1_linear_361_7015" x1="19.9974" y1="7.99634" x2="19.9974" y2="29.9999" gradientUnits="userSpaceOnUse">
<stop stop-color="#00A63E"/>
<stop offset="1" stop-color="#7FC097"/>
</linearGradient>
<clipPath id="clip0_361_7015">
<rect width="28" height="22" fill="white" transform="translate(6 8)"/>
</clipPath>
</defs>
</svg>
