<svg width="38" height="38" viewBox="0 0 38 38" fill="none" xmlns="http://www.w3.org/2000/svg">
<circle cx="19" cy="19" r="18.5" fill="url(#paint0_linear_361_6988)" stroke="#E7DAEF"/>
<g clip-path="url(#clip0_361_6988)">
<path d="M22.8127 17.2564C13.7475 -7.66703 30.8345 39.3131 22.8127 17.2564V17.2564ZM6.00031 21.4014C5.98586 20.1181 6.4717 18.9642 7.6052 18.5103C7.64729 18.4467 7.68855 18.3975 7.76198 18.3359C7.89294 18.2259 8.01184 18.1933 8.16584 18.1346C13.6004 16.1335 15.686 13.0155 16.8722 11.2422C17.2185 10.7246 17.4947 10.3117 17.7797 10.0269C17.9378 9.86889 18.0621 9.76733 18.249 9.6971C18.4421 9.62447 18.6218 9.61788 18.8722 9.65815C19.4219 9.74646 19.9857 10.1135 20.5367 10.6849C21.7571 11.9502 23.0438 14.3483 23.9513 16.8433C24.8632 19.3504 25.4028 21.9909 25.1238 23.7294C25.0089 24.4465 24.7552 25.0349 24.3354 25.4405L24.3348 25.4399C24.3104 25.4633 24.2837 25.485 24.2548 25.5046C23.9664 25.7007 23.6944 25.777 23.4129 25.7877C23.1696 25.7971 22.9566 25.7557 22.7198 25.7065C22.2935 25.6178 21.8855 25.5013 21.4456 25.3758C20.0134 24.9672 18.2268 24.4577 15.3879 24.791C15.3313 24.9793 15.2898 25.1803 15.2881 25.3599C15.2869 25.4792 15.2989 25.5739 15.3338 25.6057L15.3817 25.6495C15.6474 25.8914 15.7783 26.0103 15.8567 26.3037C15.9179 26.5333 15.8924 26.731 15.842 27.1202L15.8252 27.2513C15.7968 27.4746 15.9114 27.5235 16.0258 27.5723C16.3612 27.7155 16.6965 27.8586 16.8783 28.3445C16.9281 28.4572 16.9424 28.5824 16.9191 28.7035C16.7734 29.4525 16.3318 29.8325 15.8904 30.2125C15.8036 30.2872 15.7166 30.362 15.6391 30.4355L15.6381 30.4344C15.6255 30.4463 15.6124 30.4578 15.5988 30.4688C14.5461 31.3113 13.8141 31.0602 13.2478 30.3513C12.8867 29.8994 12.6581 29.2685 12.4446 28.6795L12.3569 28.441C12.0522 27.6156 11.8236 26.6287 11.5925 25.6014L11.5344 25.6193C11.3007 25.6887 11.0678 25.7606 10.8358 25.8352C10.8129 25.8426 10.801 25.8473 10.7913 25.8512C10.5837 25.9338 10.4796 25.9751 10.3122 25.9151C8.92956 26.2705 7.77995 25.5962 7.00764 24.5145C6.6924 24.073 6.44299 23.5605 6.27141 23.0266C6.1008 22.4955 6.00642 21.9374 6.00031 21.4014Z" fill="#333333"/>
<path fill-rule="evenodd" clip-rule="evenodd" d="M8.00885 19.0115C5.1485 19.8538 7.02223 26.4117 10.3727 25.2643C10.5017 25.345 10.4999 25.307 10.6507 25.2583C11.1114 25.1092 11.5754 24.9709 12.0425 24.8433C12.3199 26.0675 12.5715 27.2713 12.9262 28.2321C13.3787 29.4577 13.8499 31.0942 15.2215 29.9963C15.6542 29.5863 16.1913 29.2702 16.3236 28.5896C16.1035 27.9284 15.0798 28.3183 15.225 27.1753C15.3256 26.3838 15.3477 26.4403 14.9257 26.0546C14.4984 25.6639 14.721 24.7759 14.9437 24.2365C16.4335 24.0301 17.6518 24.0425 18.6851 24.1591C17.3764 22.6774 16.4498 21.1089 15.877 19.4733C15.3022 17.8316 15.0855 16.1296 15.1979 14.3862C13.7738 15.8806 11.6701 17.4911 8.37457 18.7045C8.10646 18.8033 8.16168 18.7674 8.00885 19.0115Z" fill="#EDECF1"/>
<path d="M21.0092 25.2624C20.6525 25.1641 19.3995 24.9242 19.1695 24.6849C17.6024 23.0501 16.5182 21.3037 15.8772 19.4732C15.2107 17.5696 15.0255 15.5849 15.277 13.5485C15.2775 13.5485 15.3835 13.2735 15.4003 13.2517C15.7997 12.7331 16.1992 12.1616 16.5624 11.6421C17.0562 10.9357 17.487 10.3196 17.7799 10.0269C17.938 9.86889 18.0624 9.76733 18.2492 9.6971C18.4423 9.62447 18.6221 9.61788 18.8724 9.65815C19.4221 9.74646 19.9859 10.1135 20.537 10.6849C21.7573 11.9502 23.044 14.3483 23.9516 16.8433C24.8634 19.3504 25.403 21.9909 25.1241 23.7294C25.0091 24.4465 24.7555 25.0349 24.3356 25.4405L24.335 25.4399C24.3106 25.4633 24.2839 25.485 24.255 25.5046C23.9666 25.7008 23.6945 25.7769 23.4131 25.7876C23.1697 25.797 22.9568 25.7556 22.72 25.7065C22.3153 25.6223 21.6708 25.4446 21.0092 25.2624Z" fill="#333333"/>
<path fill-rule="evenodd" clip-rule="evenodd" d="M19.6055 24.2647C20.2189 24.4104 21.0623 24.6516 21.7859 24.8477C20.3052 23.3629 19.096 21.0816 18.2783 18.7462C17.4055 16.2534 16.9764 13.6613 17.135 11.8784C16.7437 12.4378 16.3064 13.0673 15.8791 13.6221C15.4065 17.4485 16.5408 21.0675 19.6055 24.2647Z" fill="#FD6974"/>
<path fill-rule="evenodd" clip-rule="evenodd" d="M12.0366 24.8385C12.2672 25.8646 12.6262 27.419 12.9263 28.232C13.3787 29.4576 13.85 31.0941 15.2217 29.9962C15.6543 29.5861 16.1914 29.2701 16.3238 28.5894C16.1036 27.9282 15.08 28.3182 15.2251 27.1752C15.3257 26.3837 15.3479 26.4402 14.9258 26.0544C14.5144 25.6783 14.7055 24.8412 14.919 24.298C15.4775 24.0237 16.9941 23.997 18.6639 24.1635C17.6145 22.9749 16.8212 21.8644 16.1125 20.1326C14.5147 21.5354 13.6344 23.4356 12.0366 24.8385Z" fill="#DBD9E5"/>
<path d="M17.4709 10.4487C17.5702 10.2108 17.7054 10.024 17.8718 9.88523C18.2438 9.57498 18.6889 9.53823 19.1786 9.73123C19.532 9.87047 19.9145 10.144 20.3061 10.5249C21.1873 11.3821 22.1907 12.8566 23.024 14.5735C24.0849 16.7594 24.9478 19.3387 25.2497 21.4148C25.3983 22.4357 25.4122 23.3518 25.2507 24.0668C25.0561 24.9287 24.6157 25.5241 23.871 25.7302C23.6157 25.8008 23.3362 25.8199 23.0317 25.7818C22.9131 25.7675 22.8014 25.7183 22.7108 25.6405C20.8072 24.2778 19.2605 21.5509 18.2785 18.7462C17.1273 15.4582 16.7476 11.9971 17.4709 10.4487ZM23.3318 11.1511C23.1322 11.3157 22.8375 11.2882 22.6731 11.0887C22.5088 10.8889 22.5361 10.5939 22.7356 10.4294L25.5416 8.10736C25.741 7.94286 26.0358 7.97027 26.2002 8.16987C26.3644 8.36957 26.3372 8.66457 26.1376 8.82922L23.3318 11.1511ZM27.2738 22.627C27.0155 22.6388 26.7988 22.4372 26.7894 22.1778C26.7777 21.9196 26.9791 21.7023 27.2382 21.6932L30.5154 21.5699C30.772 21.5615 30.9888 21.7633 30.9997 22.0191C31.0046 22.1431 30.9602 22.2639 30.8763 22.3552C30.7924 22.4465 30.6758 22.5009 30.552 22.5064L27.2738 22.627ZM27.1802 19.4401C26.924 19.4744 26.6885 19.2937 26.6552 19.0399C26.621 18.7834 26.8016 18.5477 27.0551 18.5143L30.0828 18.1117C30.339 18.0773 30.5746 18.2581 30.6078 18.5119C30.6421 18.7683 30.4614 19.0041 30.208 19.0374L27.1802 19.4401ZM26.5431 16.5144C26.2989 16.5991 26.0322 16.4698 25.9472 16.2252C25.927 16.1671 25.9185 16.1055 25.9221 16.0441C25.9257 15.9826 25.9413 15.9225 25.9681 15.8671C25.995 15.8117 26.0324 15.7621 26.0784 15.7212C26.1243 15.6803 26.1779 15.6489 26.236 15.6287L29.3406 14.5502C29.5841 14.4626 29.8519 14.5947 29.9366 14.8392C29.9772 14.9567 29.9697 15.0855 29.9155 15.1974C29.8614 15.3092 29.765 15.395 29.6477 15.4359L26.5431 16.5144ZM25.079 13.6966C24.8548 13.8248 24.5697 13.7467 24.4415 13.5223C24.3135 13.2978 24.3916 13.0125 24.6158 12.8843L27.5575 11.1951C27.7817 11.0667 28.0668 11.1449 28.195 11.3693C28.323 11.5937 28.2448 11.8791 28.0205 12.0073L25.079 13.6966Z" fill="#333333"/>
<path fill-rule="evenodd" clip-rule="evenodd" d="M18.03 10.6832C18.6504 9.1918 20.8725 11.529 22.4783 14.837C24.6671 19.3466 25.9881 25.5396 23.1052 25.1787C19.1836 22.4276 16.7736 13.2815 18.03 10.6832Z" fill="white"/>
<path fill-rule="evenodd" clip-rule="evenodd" d="M22.8442 15.6249C24.8043 20.0329 25.8237 25.5191 23.1053 25.1788C21.882 24.3206 20.8058 22.84 19.9421 21.13C18.3668 17.5351 17.7058 13.3092 18.4962 11.6746C19.1039 10.214 21.2476 12.4256 22.8442 15.6249Z" fill="#EDECF1"/>
<path fill-rule="evenodd" clip-rule="evenodd" d="M21.3115 18.852C21.3115 19.8026 20.152 21.7095 19.7602 20.8936C19.1577 19.6389 18.6678 18.342 18.3578 16.9538C18.2589 16.5086 21.3115 16.5676 21.3115 18.852Z" fill="#333333"/>
</g>
<defs>
<linearGradient id="paint0_linear_361_6988" x1="19" y1="0" x2="19" y2="38" gradientUnits="userSpaceOnUse">
<stop stop-color="#F6E8FF"/>
<stop offset="1" stop-color="#938B99"/>
</linearGradient>
<clipPath id="clip0_361_6988">
<rect width="25" height="23" fill="white" transform="translate(6 8)"/>
</clipPath>
</defs>
</svg>
